<svg width="20" height="20" viewBox="0 0 20 20" fill="none" xmlns="http://www.w3.org/2000/svg">
<path fill-rule="evenodd" clip-rule="evenodd" d="M10 0.833374C4.91671 0.833374 0.833374 4.91671 0.833374 10C0.833374 15.0834 4.91671 19.1667 10 19.1667C15.0834 19.1667 19.1667 15.0834 19.1667 10C19.1667 4.91671 15.0834 0.833374 10 0.833374ZM10 17.5C5.83337 17.5 2.50004 14.1667 2.50004 10C2.50004 5.83337 5.83337 2.50004 10 2.50004C14.1667 2.50004 17.5 5.83337 17.5 10C17.5 14.1667 14.1667 17.5 10 17.5ZM13.0834 13.0834C13.4167 12.75 13.4167 12.25 13.0834 11.9167L10.8334 9.66671V5.00004C10.8334 4.50004 10.5 4.16671 10 4.16671C9.50004 4.16671 9.16671 4.50004 9.16671 5.00004V10C9.16671 10.25 9.25004 10.4167 9.41671 10.5834L11.9167 13.0834C12.0834 13.25 12.25 13.3334 12.5 13.3334C12.75 13.3334 12.9167 13.25 13.0834 13.0834Z" fill="#151515"/>
<mask id="mask0_989_4128" style="mask-type:luminance" maskUnits="userSpaceOnUse" x="0" y="0" width="20" height="20">
<path fill-rule="evenodd" clip-rule="evenodd" d="M10 0.833374C4.91671 0.833374 0.833374 4.91671 0.833374 10C0.833374 15.0834 4.91671 19.1667 10 19.1667C15.0834 19.1667 19.1667 15.0834 19.1667 10C19.1667 4.91671 15.0834 0.833374 10 0.833374ZM10 17.5C5.83337 17.5 2.50004 14.1667 2.50004 10C2.50004 5.83337 5.83337 2.50004 10 2.50004C14.1667 2.50004 17.5 5.83337 17.5 10C17.5 14.1667 14.1667 17.5 10 17.5ZM13.0834 13.0834C13.4167 12.75 13.4167 12.25 13.0834 11.9167L10.8334 9.66671V5.00004C10.8334 4.50004 10.5 4.16671 10 4.16671C9.50004 4.16671 9.16671 4.50004 9.16671 5.00004V10C9.16671 10.25 9.25004 10.4167 9.41671 10.5834L11.9167 13.0834C12.0834 13.25 12.25 13.3334 12.5 13.3334C12.75 13.3334 12.9167 13.25 13.0834 13.0834Z" fill="white"/>
</mask>
<g mask="url(#mask0_989_4128)">
<rect width="20" height="20" fill="#151515"/>
</g>
</svg>
