<svg width="370" height="49" viewBox="0 0 370 49" fill="none" xmlns="http://www.w3.org/2000/svg">
<g clip-path="url(#clip0_637_5861)">
<path d="M0 24.2917C0 10.6405 9.79842 0.363037 23.8682 0.363037C37.938 0.363037 47.7969 10.1615 47.7969 24.2917C47.7969 38.422 37.9985 48.2205 23.8682 48.2205C9.7379 48.2205 0 38.3615 0 24.2917Z" fill="#B0EED0"/>
<path d="M59.6882 24.1708C59.6882 11.4273 67.7468 2.34497 80.8534 2.34497C91.7966 2.34497 99.3106 8.71924 101.116 19.4809H93.723C92.4017 12.8645 87.5303 8.84027 80.8534 8.84027C72.3763 8.84027 67.0862 14.7909 67.0862 24.1708C67.0862 33.5506 72.3763 39.6828 80.8534 39.6828C87.6463 39.6828 92.3967 35.7746 93.723 29.1028H101.116C99.1895 40.0459 91.8571 46.2387 80.8534 46.2387C67.9284 46.2387 59.6882 37.3379 59.6882 24.1708Z" fill="#B0EED0"/>
<path d="M112.301 0.241943H105.206V45.3358H112.301V0.241943Z" fill="#B0EED0"/>
<path d="M116.991 34.5744V13.4697H124.086V34.2718C124.086 37.8775 126.613 39.9855 130.4 39.9855C135.272 39.9855 138.156 36.7983 138.217 32.7085V13.4697H145.312V45.336H139.598L139.059 40.7066C137.193 44.1358 133.406 46.2387 128.958 46.2387C121.383 46.2387 116.991 41.4883 116.991 34.5744Z" fill="#B0EED0"/>
<path d="M175.312 29.2186C175.312 22.9049 171.767 18.5175 166.593 18.5175C161.419 18.5175 157.632 22.8444 157.632 29.0371C157.632 35.5879 161.359 40.2223 166.593 40.2223C171.828 40.2223 175.312 35.7139 175.312 29.2186ZM156.916 39.6827L156.255 45.3358H150.542V0.241943H157.637V17.6199C159.921 14.4933 163.709 12.5064 168.217 12.5064C176.634 12.5064 182.589 19.3597 182.589 29.2237C182.589 39.0877 176.639 46.2385 168.162 46.2385C163.108 46.2385 158.903 43.712 156.921 39.6827" fill="#B0EED0"/>
<path d="M200.447 45.3359C193.533 45.3359 189.806 41.9067 189.806 35.598V19.4858H184.213V13.4746H189.806V2.58691H196.901V13.4696H205.137V19.4807H196.901V35.1138C196.901 37.8219 198.283 39.3247 200.931 39.3247H204.536V45.3359H200.447Z" fill="#B0EED0"/>
<path d="M209.403 13.4697H216.498V45.336H209.403V13.4697ZM208.379 4.5689C208.379 1.98187 210.361 0 212.948 0C215.535 0 217.517 1.98187 217.517 4.5689C217.517 7.15592 215.59 9.19831 212.948 9.19831C210.305 9.19831 208.379 7.15592 208.379 4.5689Z" fill="#B0EED0"/>
<path d="M221.127 29.1634C221.127 18.6993 228.162 12.5066 237.421 12.5066C246.14 12.5066 252.031 17.8571 252.631 25.7947H245.656C244.996 21.4074 241.869 18.5783 237.361 18.5783C231.95 18.5783 228.344 22.6681 228.344 29.1584C228.344 36.1327 232.313 40.162 237.603 40.162C241.93 40.162 244.94 37.3985 245.661 32.8246H252.636C251.794 41.0647 246.08 46.2337 237.603 46.2337C227.204 46.2337 221.127 38.7803 221.127 29.1584" fill="#B0EED0"/>
<path d="M257.386 45.3358V0.241943H264.477V27.2973L278.067 13.4696H286.726L275.183 24.9523L288.289 45.3358H280.049L270.251 29.8843L264.477 35.6534V45.3358H257.386Z" fill="#B0EED0"/>
<path d="M310.897 25.855C309.994 21.2861 307.17 18.5175 303.02 18.5175C298.869 18.5175 295.687 21.2811 294.603 25.855H310.897ZM287.21 29.5212C287.21 19.0016 294.124 12.5063 303.025 12.5063C311.926 12.5063 318.058 18.8201 318.234 29.1632V30.8475H294.306C294.785 36.4401 298.274 40.2273 303.685 40.2273C307.352 40.2273 310.12 38.422 311.199 35.2348H318.113C316.489 42.0882 311.139 46.2385 303.625 46.2385C293.882 46.2385 287.21 39.2641 287.21 29.5212Z" fill="#B0EED0"/>
<path d="M336.091 45.3359C329.177 45.3359 325.451 41.9067 325.451 35.598V19.4858H319.858V13.4746H325.451V2.58691H332.546V13.4696H340.781V19.4807H332.546V35.1138C332.546 37.8219 333.928 39.3247 336.575 39.3247H340.181V45.3359H336.091Z" fill="#B0EED0"/>
<path d="M343.424 35.1743H350.277C350.519 38.6035 353.464 40.4039 357.373 40.4039C360.978 40.4039 362.905 39.0221 362.905 36.5561C362.905 34.0901 360.862 33.611 358.094 32.7083L353.883 31.3266C348.593 29.5817 344.024 27.7814 344.024 21.8862C344.024 15.991 348.356 12.5063 355.991 12.5063C363.626 12.5063 368.437 16.4146 369.279 23.6311H362.547C362.184 20.0254 359.602 18.341 355.93 18.341C352.804 18.341 350.998 19.6623 350.998 21.8307C350.998 24.2967 353.762 24.9574 356.051 25.739L359.899 26.9997C366.213 29.1026 370 31.029 370 36.7427C370 42.4563 365.552 46.2436 357.736 46.2436C349.016 46.2436 343.847 42.1538 343.424 35.1794" fill="#B0EED0"/>
</g>
<defs>
<clipPath id="clip0_637_5861">
<rect width="370" height="48.2205" fill="white"/>
</clipPath>
</defs>
</svg>
