<svg width="24" height="24" viewBox="0 0 24 24" fill="none" xmlns="http://www.w3.org/2000/svg">
<g clip-path="url(#clip0_798_24596)">
<path d="M12.7061 14.1163L23.3536 8.39233e-05H0.647461L11.295 14.1163V22.589H6.53519V24.0001H17.4659V22.589H12.7061V14.1163ZM14.275 9.6929L14.0875 9.94143C13.8993 10.1263 13.6415 10.2406 13.3574 10.2406C12.7824 10.2406 12.3146 9.77273 12.3146 9.19771C12.3146 8.62269 12.7824 8.15488 13.3574 8.15488C13.9324 8.15488 14.4003 8.62265 14.4003 9.19771C14.4003 9.37677 14.3549 9.54547 14.275 9.6929ZM15.5209 8.04107C15.3549 7.73155 15.1242 7.46183 14.8472 7.24958L15.836 5.84526H17.1772L15.5209 8.04107ZM3.47937 1.41121H20.5217L18.2416 4.43413H16.8297L17.6333 3.29291L16.4795 2.48052L15.1038 4.43413H5.75946L3.47937 1.41121ZM6.8239 5.84526H14.1102L13.4754 6.74676C13.4363 6.74488 13.397 6.74376 13.3574 6.74376C12.0043 6.74376 10.9035 7.84457 10.9035 9.19771C10.9035 10.3731 11.7343 11.3577 12.8394 11.5962L12.0005 12.7083L6.8239 5.84526Z" fill="black"/>
</g>
<defs>
<clipPath id="clip0_798_24596">
<rect width="24" height="24" fill="white"/>
</clipPath>
</defs>
</svg>
