<svg width="24" height="24" viewBox="0 0 24 24" fill="none" xmlns="http://www.w3.org/2000/svg">
<path d="M2.18812 6.91618C1.93729 7.26498 1.93729 7.73502 2.18812 8.08382L3.38627 9.75L2.18812 11.4162C1.93729 11.765 1.93729 12.235 2.18812 12.5838L3.38627 14.25L2.18812 15.9162C1.93729 16.265 1.93729 16.735 2.18812 17.0838L3.38627 18.75L2.18812 20.4162C1.96909 20.7208 1.93897 21.1223 2.11011 21.4562C2.28124 21.79 2.62484 22 3 22H21C21.3752 22 21.7188 21.79 21.8899 21.4562C22.061 21.1223 22.0309 20.7208 21.8119 20.4162L20.6137 18.75L21.8119 17.0838C22.0627 16.735 22.0627 16.265 21.8119 15.9162L20.6137 14.25L21.8119 12.5838C22.0627 12.235 22.0627 11.765 21.8119 11.4162L20.6137 9.75L21.8119 8.08382C22.0627 7.73502 22.0627 7.26498 21.8119 6.91618L20.6137 5.25L21.8119 3.58382C22.0309 3.27924 22.061 2.87769 21.8899 2.54383C21.7188 2.20998 21.3752 2 21 2H3C2.62484 2 2.28124 2.20998 2.11011 2.54383C1.93897 2.87769 1.96909 3.27924 2.18812 3.58382L3.38627 5.25L2.18812 6.91618Z" stroke="#151515" stroke-width="2" stroke-linejoin="round"/>
</svg>
