<svg width="235" height="31" viewBox="0 0 235 31" fill="none" xmlns="http://www.w3.org/2000/svg">
<g id="Capa_1" clip-path="url(#clip0_631_20333)">
<path id="Vector" d="M0 15.4286C0 6.75821 6.22332 0.230612 15.1595 0.230612C24.0957 0.230612 30.3575 6.45393 30.3575 15.4286C30.3575 24.4032 24.1342 30.6265 15.1595 30.6265C6.18489 30.6265 0 24.3648 0 15.4286Z" fill="#151515"/>
<path id="Vector_2" d="M37.9102 15.3517C37.9102 7.25787 43.0285 1.48937 51.3529 1.48937C58.3033 1.48937 63.0757 5.53789 64.2223 12.373H59.5268C58.6877 8.17071 55.5936 5.61476 51.3529 5.61476C45.9688 5.61476 42.6089 9.39423 42.6089 15.3517C42.6089 21.3092 45.9688 25.204 51.3529 25.204C55.6673 25.204 58.6845 22.7217 59.5268 18.4842H64.2223C62.9988 25.4346 58.3417 29.3678 51.3529 29.3678C43.1438 29.3678 37.9102 23.7146 37.9102 15.3517Z" fill="#151515"/>
<path id="Vector_3" d="M71.3264 0.153742H66.8198V28.7945H71.3264V0.153742Z" fill="#151515"/>
<g id="Group">
<path id="Vector_4" d="M74.3051 21.9594V8.55506H78.8116V21.7672C78.8116 24.0573 80.4163 25.3961 82.8217 25.3961C85.9157 25.3961 87.7478 23.3719 87.7862 20.7743V8.55506H92.2928V28.7945H88.6639L88.3211 25.8542C87.136 28.0322 84.7306 29.3678 81.9056 29.3678C77.0948 29.3678 74.3051 26.3506 74.3051 21.9594Z" fill="#151515"/>
<path id="Vector_5" d="M111.347 18.5579C111.347 14.5478 109.095 11.7612 105.809 11.7612C102.523 11.7612 100.118 14.5093 100.118 18.4426C100.118 22.6032 102.485 25.5467 105.809 25.5467C109.134 25.5467 111.347 22.6832 111.347 18.5579ZM99.6628 25.204L99.2432 28.7945H95.6143V0.153742H100.121V11.1911C101.572 9.20526 103.977 7.9433 106.841 7.9433C112.186 7.9433 115.969 12.2961 115.969 18.5611C115.969 24.826 112.189 29.3678 106.805 29.3678C103.596 29.3678 100.925 27.7631 99.666 25.204" fill="#151515"/>
<path id="Vector_6" d="M127.311 28.7945C122.919 28.7945 120.552 26.6165 120.552 22.6096V12.3762H117V8.55827H120.552V1.64311H125.059V8.55506H130.289V12.373H125.059V22.3021C125.059 24.0221 125.937 24.9766 127.618 24.9766H129.908V28.7945H127.311Z" fill="#151515"/>
<path id="Vector_7" d="M132.999 8.55506H137.505V28.7945H132.999V8.55506ZM132.349 2.90187C132.349 1.25876 133.608 0 135.251 0C136.894 0 138.152 1.25876 138.152 2.90187C138.152 4.54498 136.929 5.84217 135.251 5.84217C133.572 5.84217 132.349 4.54498 132.349 2.90187Z" fill="#151515"/>
<path id="Vector_8" d="M140.446 18.5226C140.446 11.8765 144.914 7.9433 150.795 7.9433C156.332 7.9433 160.073 11.3416 160.455 16.3831H156.025C155.605 13.5965 153.62 11.7996 150.756 11.7996C147.319 11.7996 145.029 14.3972 145.029 18.5194C145.029 22.9491 147.55 25.5082 150.91 25.5082C153.658 25.5082 155.57 23.753 156.028 20.848H160.458C159.923 26.0816 156.294 29.3646 150.91 29.3646C144.305 29.3646 140.446 24.6306 140.446 18.5194" fill="#151515"/>
</g>
<path id="Vector_9" d="M163.475 28.7945V0.153742H167.978V17.3375L176.61 8.55506H182.11L174.778 15.8482L183.103 28.7945H177.869L171.646 18.9806L167.978 22.6448V28.7945H163.475Z" fill="#151515"/>
<g id="Group_2">
<path id="Vector_10" d="M197.461 16.4215C196.888 13.5196 195.094 11.7612 192.458 11.7612C189.822 11.7612 187.801 13.5164 187.113 16.4215H197.461ZM182.417 18.75C182.417 12.0687 186.808 7.9433 192.462 7.9433C198.115 7.9433 202.01 11.9534 202.122 18.5226V19.5924H186.924C187.228 23.1445 189.444 25.5499 192.881 25.5499C195.21 25.5499 196.968 24.4032 197.654 22.379H202.045C201.014 26.7318 197.615 29.3678 192.843 29.3678C186.655 29.3678 182.417 24.9381 182.417 18.75Z" fill="#151515"/>
<path id="Vector_11" d="M213.463 28.7945C209.072 28.7945 206.705 26.6165 206.705 22.6096V12.3762H203.153V8.55827H206.705V1.64311H211.212V8.55506H216.442V12.373H211.212V22.3021C211.212 24.0221 212.089 24.9766 213.771 24.9766H216.061V28.7945H213.463Z" fill="#151515"/>
<path id="Vector_12" d="M218.12 22.3405H222.473C222.627 24.5185 224.498 25.662 226.98 25.662C229.27 25.662 230.493 24.7844 230.493 23.2181C230.493 21.6519 229.196 21.3476 227.438 20.7743L224.763 19.8967C221.403 18.7885 218.502 17.645 218.502 13.9008C218.502 10.1565 221.253 7.9433 226.102 7.9433C230.951 7.9433 234.007 10.4256 234.542 15.009H230.266C230.035 12.7189 228.396 11.6491 226.064 11.6491C224.078 11.6491 222.931 12.4883 222.931 13.8655C222.931 15.4318 224.687 15.8514 226.141 16.3478L228.584 17.1486C232.595 18.4842 235 19.7077 235 23.3367C235 26.9656 232.175 29.371 227.21 29.371C221.673 29.371 218.39 26.7734 218.12 22.3437" fill="#151515"/>
</g>
</g>
<defs>
<clipPath id="clip0_631_20333">
<rect width="235" height="30.6266" fill="white"/>
</clipPath>
</defs>
</svg>
