<svg width="61" height="61" viewBox="0 0 61 61" fill="none" xmlns="http://www.w3.org/2000/svg">
<path d="M61 30.5C61 47.3447 47.3447 61 30.5 61C13.6553 61 0 47.3447 0 30.5C0 13.6553 13.6553 0 30.5 0C47.3447 0 61 13.6553 61 30.5Z" fill="#F2F2F2"/>
<path d="M23.1474 24.2668L35.8753 36.9948C36.2996 37.419 36.85 37.4343 37.2514 37.0328C37.6528 36.6314 37.6376 36.081 37.2133 35.6567L24.4854 22.9288C24.0612 22.5045 23.5107 22.4893 23.1093 22.8907C22.7079 23.2921 22.7231 23.8426 23.1474 24.2668Z" fill="#151515"/>
<path d="M35.7993 22.9292L23.0714 35.6572C22.6471 36.0814 22.6319 36.6319 23.0333 37.0333C23.4347 37.4347 23.9851 37.4195 24.4094 36.9952L37.1373 24.2673C37.5616 23.843 37.5768 23.2926 37.1754 22.8911C36.774 22.4897 36.2236 22.505 35.7993 22.9292Z" fill="#151515"/>
</svg>
